<svg xmlns="http://www.w3.org/2000/svg" xmlns:xlink="http://www.w3.org/1999/xlink" width="500" zoomAndPan="magnify" viewBox="0 0 375 374.999991" height="500" preserveAspectRatio="xMidYMid meet" version="1.0"><defs><g/><clipPath id="bbd8e79347"><path d="M 40.691406 37.5 L 333.941406 37.5 L 333.941406 330.75 L 40.691406 330.75 Z M 40.691406 37.5 " clip-rule="nonzero"/></clipPath><clipPath id="1c11130990"><path d="M 270.613281 247.925781 L 278.113281 247.925781 L 278.113281 255.425781 L 270.613281 255.425781 Z M 270.613281 247.925781 " clip-rule="nonzero"/></clipPath><clipPath id="11195585a0"><path d="M 96.769531 247.925781 L 104.269531 247.925781 L 104.269531 255.425781 L 96.769531 255.425781 Z M 96.769531 247.925781 " clip-rule="nonzero"/></clipPath><clipPath id="7936db0344"><path d="M 139.859375 283 L 235.109375 283 L 235.109375 311.8125 L 139.859375 311.8125 Z M 139.859375 283 " clip-rule="nonzero"/></clipPath></defs><g clip-path="url(#bbd8e79347)"><path fill="#f5b98c" d="M 187.316406 37.5 C 106.335938 37.5 40.691406 103.144531 40.691406 184.125 C 40.691406 265.105469 106.335938 330.75 187.316406 330.75 C 268.292969 330.75 333.941406 265.105469 333.941406 184.125 C 333.941406 103.144531 268.292969 37.5 187.316406 37.5 " fill-opacity="1" fill-rule="nonzero"/></g><g fill="#0051b1" fill-opacity="1"><g transform="translate(92.199716, 202.017918)"><g><path d="M 2.453125 -18.09375 C 2.140625 -15.039062 1.253906 -12.414062 -0.203125 -10.21875 C -1.671875 -8.019531 -3.585938 -6.394531 -5.953125 -5.34375 C -8.328125 -4.300781 -10.992188 -3.9375 -13.953125 -4.25 L -32.625 -6.21875 C -35.539062 -6.53125 -38.039062 -7.441406 -40.125 -8.953125 C -42.21875 -10.472656 -43.742188 -12.457031 -44.703125 -14.90625 C -45.660156 -17.363281 -45.984375 -20.117188 -45.671875 -23.171875 C -45.347656 -26.210938 -44.46875 -28.832031 -43.03125 -31.03125 C -41.601562 -33.238281 -39.75 -34.867188 -37.46875 -35.921875 C -35.1875 -36.972656 -32.609375 -37.347656 -29.734375 -37.046875 L -29.390625 -37 C -29.171875 -36.976562 -28.976562 -36.878906 -28.8125 -36.703125 C -28.65625 -36.523438 -28.585938 -36.320312 -28.609375 -36.09375 L -29.09375 -28.203125 C -29.15625 -27.660156 -29.429688 -27.414062 -29.921875 -27.46875 L -30.796875 -27.5625 C -32.640625 -27.757812 -34.175781 -27.378906 -35.40625 -26.421875 C -36.632812 -25.472656 -37.347656 -24.101562 -37.546875 -22.3125 C -37.734375 -20.519531 -37.320312 -19.023438 -36.3125 -17.828125 C -35.300781 -16.640625 -33.875 -15.945312 -32.03125 -15.75 L -12.34375 -13.671875 C -10.507812 -13.484375 -8.988281 -13.867188 -7.78125 -14.828125 C -6.570312 -15.785156 -5.875 -17.160156 -5.6875 -18.953125 C -5.488281 -20.742188 -5.882812 -22.234375 -6.875 -23.421875 C -7.863281 -24.609375 -9.273438 -25.296875 -11.109375 -25.484375 L -11.984375 -25.578125 C -12.484375 -25.628906 -12.703125 -25.925781 -12.640625 -26.46875 L -11.46875 -34.296875 C -11.445312 -34.523438 -11.347656 -34.707031 -11.171875 -34.84375 C -11.003906 -34.988281 -10.804688 -35.046875 -10.578125 -35.015625 L -10.375 -35 C -7.507812 -34.695312 -5.046875 -33.789062 -2.984375 -32.28125 C -0.929688 -30.769531 0.566406 -28.785156 1.515625 -26.328125 C 2.460938 -23.878906 2.773438 -21.132812 2.453125 -18.09375 Z M 2.453125 -18.09375 "/></g></g></g><g fill="#0051b1" fill-opacity="1"><g transform="translate(96.800131, 163.246159)"><g><path d="M 9.6875 -15.71875 C 8.144531 -13.019531 6.238281 -10.957031 3.96875 -9.53125 C 1.695312 -8.101562 -0.753906 -7.390625 -3.390625 -7.390625 C -6.035156 -7.398438 -8.691406 -8.164062 -11.359375 -9.6875 L -26.96875 -18.59375 C -29.59375 -20.09375 -31.578125 -21.976562 -32.921875 -24.25 C -34.265625 -26.53125 -34.894531 -29.007812 -34.8125 -31.6875 C -34.738281 -34.363281 -33.929688 -37.050781 -32.390625 -39.75 C -30.847656 -42.445312 -28.929688 -44.519531 -26.640625 -45.96875 C -24.359375 -47.425781 -21.898438 -48.148438 -19.265625 -48.140625 C -16.628906 -48.128906 -14 -47.375 -11.375 -45.875 L 4.234375 -36.96875 C 6.898438 -35.445312 8.90625 -33.550781 10.25 -31.28125 C 11.601562 -29.007812 12.234375 -26.519531 12.140625 -23.8125 C 12.046875 -21.113281 11.226562 -18.414062 9.6875 -15.71875 Z M 2.59375 -19.765625 C 3.53125 -21.410156 3.738281 -23.03125 3.21875 -24.625 C 2.695312 -26.21875 1.570312 -27.507812 -0.15625 -28.5 L -16.328125 -37.75 C -18.097656 -38.757812 -19.796875 -39.082031 -21.421875 -38.71875 C -23.054688 -38.351562 -24.34375 -37.347656 -25.28125 -35.703125 C -26.195312 -34.097656 -26.398438 -32.5 -25.890625 -30.90625 C -25.378906 -29.3125 -24.238281 -28.007812 -22.46875 -27 L -6.296875 -17.75 C -4.566406 -16.757812 -2.878906 -16.445312 -1.234375 -16.8125 C 0.398438 -17.175781 1.675781 -18.160156 2.59375 -19.765625 Z M 2.59375 -19.765625 "/></g></g></g><g fill="#0051b1" fill-opacity="1"><g transform="translate(116.996901, 129.066045)"><g><path d="M 15.21875 -10.453125 C 12.707031 -8.609375 10.128906 -7.488281 7.484375 -7.09375 C 4.835938 -6.707031 2.304688 -7.050781 -0.109375 -8.125 C -2.523438 -9.207031 -4.644531 -10.984375 -6.46875 -13.453125 L -17.109375 -27.921875 C -18.898438 -30.359375 -19.945312 -32.890625 -20.25 -35.515625 C -20.5625 -38.140625 -20.140625 -40.660156 -18.984375 -43.078125 C -17.835938 -45.492188 -16.007812 -47.625 -13.5 -49.46875 C -11 -51.3125 -8.410156 -52.429688 -5.734375 -52.828125 C -3.054688 -53.234375 -0.515625 -52.894531 1.890625 -51.8125 C 4.296875 -50.738281 6.394531 -48.984375 8.1875 -46.546875 L 18.828125 -32.078125 C 20.648438 -29.609375 21.71875 -27.0625 22.03125 -24.4375 C 22.351562 -21.8125 21.921875 -19.285156 20.734375 -16.859375 C 19.554688 -14.429688 17.71875 -12.296875 15.21875 -10.453125 Z M 10.375 -17.03125 C 11.894531 -18.144531 12.742188 -19.535156 12.921875 -21.203125 C 13.097656 -22.867188 12.597656 -24.503906 11.421875 -26.109375 L 0.375 -41.125 C -0.832031 -42.757812 -2.257812 -43.738281 -3.90625 -44.0625 C -5.550781 -44.394531 -7.132812 -44.003906 -8.65625 -42.890625 C -10.144531 -41.785156 -10.972656 -40.398438 -11.140625 -38.734375 C -11.316406 -37.066406 -10.800781 -35.414062 -9.59375 -33.78125 L 1.453125 -18.765625 C 2.628906 -17.160156 4.035156 -16.191406 5.671875 -15.859375 C 7.316406 -15.535156 8.882812 -15.925781 10.375 -17.03125 Z M 10.375 -17.03125 "/></g></g></g><g fill="#0051b1" fill-opacity="1"><g transform="translate(149.217704, 105.962209)"><g><path d="M 4.296875 -0.9375 C 4.066406 -0.882812 3.859375 -0.914062 3.671875 -1.03125 C 3.492188 -1.15625 3.378906 -1.332031 3.328125 -1.5625 L -6.390625 -46.203125 C -6.429688 -46.410156 -6.390625 -46.609375 -6.265625 -46.796875 C -6.148438 -46.984375 -5.976562 -47.101562 -5.75 -47.15625 L 1.96875 -48.828125 C 2.195312 -48.878906 2.398438 -48.84375 2.578125 -48.71875 C 2.765625 -48.59375 2.878906 -48.425781 2.921875 -48.21875 L 6.75 -30.640625 C 6.78125 -30.515625 6.851562 -30.441406 6.96875 -30.421875 C 7.09375 -30.410156 7.160156 -30.46875 7.171875 -30.59375 L 15.09375 -51.140625 C 15.238281 -51.535156 15.507812 -51.773438 15.90625 -51.859375 L 24.421875 -53.71875 C 24.734375 -53.78125 24.960938 -53.738281 25.109375 -53.59375 C 25.253906 -53.445312 25.265625 -53.21875 25.140625 -52.90625 L 17.046875 -31.3125 C 17.035156 -31.164062 17.070312 -31.003906 17.15625 -30.828125 L 35.53125 -8.703125 C 35.644531 -8.535156 35.710938 -8.410156 35.734375 -8.328125 C 35.804688 -7.972656 35.601562 -7.742188 35.125 -7.640625 L 26.671875 -5.796875 C 26.273438 -5.710938 25.925781 -5.847656 25.625 -6.203125 L 12.3125 -22.25 C 12.238281 -22.375 12.15625 -22.425781 12.0625 -22.40625 C 11.976562 -22.382812 11.90625 -22.296875 11.84375 -22.140625 L 9.828125 -17.203125 C 9.765625 -17.015625 9.742188 -16.875 9.765625 -16.78125 L 12.640625 -3.578125 C 12.691406 -3.347656 12.65625 -3.140625 12.53125 -2.953125 C 12.414062 -2.773438 12.242188 -2.660156 12.015625 -2.609375 Z M 4.296875 -0.9375 "/></g></g></g><g fill="#0051b1" fill-opacity="1"><g transform="translate(188.800696, 98.02545)"><g><path d="M 36.34375 -5.8125 C 35.46875 -1.625 33.445312 1.273438 30.28125 2.890625 C 27.113281 4.515625 23.394531 4.878906 19.125 3.984375 L 4.296875 0.890625 C 4.078125 0.847656 3.90625 0.734375 3.78125 0.546875 C 3.65625 0.367188 3.617188 0.164062 3.671875 -0.0625 L 12.984375 -44.78125 C 13.035156 -45 13.15625 -45.164062 13.34375 -45.28125 C 13.53125 -45.40625 13.734375 -45.445312 13.953125 -45.40625 L 27.78125 -42.515625 C 32.5 -41.535156 35.941406 -39.726562 38.109375 -37.09375 C 40.273438 -34.46875 40.910156 -31.015625 40.015625 -26.734375 C 39.109375 -22.367188 36.753906 -19.570312 32.953125 -18.34375 C 32.710938 -18.25 32.664062 -18.113281 32.8125 -17.9375 C 36.226562 -14.925781 37.40625 -10.882812 36.34375 -5.8125 Z M 21.15625 -35.546875 C 20.925781 -35.597656 20.789062 -35.519531 20.75 -35.3125 L 18.578125 -24.921875 C 18.535156 -24.691406 18.628906 -24.550781 18.859375 -24.5 L 23.875 -23.453125 C 25.632812 -23.085938 27.117188 -23.28125 28.328125 -24.03125 C 29.546875 -24.789062 30.335938 -26.035156 30.703125 -27.765625 C 31.066406 -29.523438 30.851562 -30.992188 30.0625 -32.171875 C 29.28125 -33.347656 27.984375 -34.125 26.171875 -34.5 Z M 20.40625 -4.171875 C 22.175781 -3.804688 23.660156 -4.035156 24.859375 -4.859375 C 26.066406 -5.691406 26.867188 -7.054688 27.265625 -8.953125 C 27.660156 -10.847656 27.472656 -12.4375 26.703125 -13.71875 C 25.941406 -15.007812 24.675781 -15.835938 22.90625 -16.203125 L 17.359375 -17.359375 C 17.128906 -17.410156 16.992188 -17.328125 16.953125 -17.109375 L 14.578125 -5.71875 C 14.535156 -5.507812 14.628906 -5.378906 14.859375 -5.328125 Z M 20.40625 -4.171875 "/></g></g></g><g fill="#0051b1" fill-opacity="1"><g transform="translate(227.429689, 106.655929)"><g><path d="M 14.640625 11.25 C 12.109375 9.4375 10.25 7.328125 9.0625 4.921875 C 7.875 2.515625 7.414062 0 7.6875 -2.625 C 7.96875 -5.25 9.003906 -7.8125 10.796875 -10.3125 L 21.265625 -24.921875 C 23.023438 -27.367188 25.101562 -29.144531 27.5 -30.25 C 29.90625 -31.363281 32.4375 -31.738281 35.09375 -31.375 C 37.75 -31.019531 40.34375 -29.9375 42.875 -28.125 C 45.394531 -26.3125 47.257812 -24.195312 48.46875 -21.78125 C 49.675781 -19.375 50.140625 -16.851562 49.859375 -14.21875 C 49.578125 -11.59375 48.554688 -9.054688 46.796875 -6.609375 L 36.328125 8 C 34.535156 10.5 32.441406 12.300781 30.046875 13.40625 C 27.648438 14.507812 25.113281 14.878906 22.4375 14.515625 C 19.757812 14.148438 17.160156 13.0625 14.640625 11.25 Z M 19.40625 4.609375 C 20.9375 5.710938 22.519531 6.085938 24.15625 5.734375 C 25.800781 5.378906 27.203125 4.394531 28.359375 2.78125 L 39.21875 -12.359375 C 40.40625 -14.015625 40.898438 -15.671875 40.703125 -17.328125 C 40.515625 -18.992188 39.65625 -20.378906 38.125 -21.484375 C 36.613281 -22.554688 35.039062 -22.914062 33.40625 -22.5625 C 31.769531 -22.21875 30.359375 -21.21875 29.171875 -19.5625 L 18.3125 -4.421875 C 17.15625 -2.804688 16.671875 -1.164062 16.859375 0.5 C 17.046875 2.164062 17.894531 3.535156 19.40625 4.609375 Z M 19.40625 4.609375 "/></g></g></g><g fill="#0051b1" fill-opacity="1"><g transform="translate(259.352475, 130.259419)"><g><path d="M 8.828125 16.21875 C 7.242188 13.53125 6.394531 10.847656 6.28125 8.171875 C 6.175781 5.492188 6.78125 3.007812 8.09375 0.71875 C 9.414062 -1.5625 11.398438 -3.484375 14.046875 -5.046875 L 29.546875 -14.15625 C 32.148438 -15.6875 34.769531 -16.46875 37.40625 -16.5 C 40.050781 -16.539062 42.515625 -15.863281 44.796875 -14.46875 C 47.085938 -13.070312 49.023438 -11.03125 50.609375 -8.34375 C 52.179688 -5.664062 53.023438 -2.972656 53.140625 -0.265625 C 53.265625 2.429688 52.664062 4.921875 51.34375 7.203125 C 50.03125 9.484375 48.070312 11.390625 45.46875 12.921875 L 29.96875 22.03125 C 27.320312 23.59375 24.675781 24.394531 22.03125 24.4375 C 19.394531 24.476562 16.925781 23.785156 14.625 22.359375 C 12.332031 20.941406 10.398438 18.894531 8.828125 16.21875 Z M 15.875 12.078125 C 16.820312 13.703125 18.113281 14.6875 19.75 15.03125 C 21.394531 15.375 23.078125 15.039062 24.796875 14.03125 L 40.859375 4.59375 C 42.617188 3.5625 43.742188 2.242188 44.234375 0.640625 C 44.734375 -0.960938 44.507812 -2.578125 43.5625 -4.203125 C 42.613281 -5.796875 41.320312 -6.765625 39.6875 -7.109375 C 38.050781 -7.453125 36.351562 -7.109375 34.59375 -6.078125 L 18.53125 3.359375 C 16.8125 4.367188 15.703125 5.675781 15.203125 7.28125 C 14.703125 8.882812 14.925781 10.484375 15.875 12.078125 Z M 15.875 12.078125 "/></g></g></g><g fill="#0051b1" fill-opacity="1"><g transform="translate(279.018781, 164.687151)"><g><path d="M 0.484375 4.359375 C 0.460938 4.128906 0.519531 3.929688 0.65625 3.765625 C 0.789062 3.597656 0.972656 3.5 1.203125 3.46875 L 46.609375 -1.59375 C 46.816406 -1.625 47.007812 -1.570312 47.1875 -1.4375 C 47.363281 -1.300781 47.460938 -1.117188 47.484375 -0.890625 L 48.359375 6.96875 C 48.390625 7.195312 48.332031 7.394531 48.1875 7.5625 C 48.050781 7.738281 47.878906 7.84375 47.671875 7.875 L 29.796875 9.859375 C 29.660156 9.878906 29.578125 9.945312 29.546875 10.0625 C 29.523438 10.1875 29.578125 10.257812 29.703125 10.28125 L 49.328125 20.265625 C 49.691406 20.453125 49.898438 20.742188 49.953125 21.140625 L 50.921875 29.8125 C 50.953125 30.125 50.882812 30.347656 50.71875 30.484375 C 50.5625 30.617188 50.335938 30.609375 50.046875 30.453125 L 29.390625 20.171875 C 29.242188 20.148438 29.085938 20.171875 28.921875 20.234375 L 5.015625 36.234375 C 4.835938 36.328125 4.707031 36.378906 4.625 36.390625 C 4.257812 36.429688 4.046875 36.210938 3.984375 35.734375 L 3.03125 27.125 C 2.988281 26.71875 3.15625 26.390625 3.53125 26.140625 L 20.859375 14.53125 C 20.992188 14.46875 21.054688 14.394531 21.046875 14.3125 C 21.035156 14.226562 20.957031 14.144531 20.8125 14.0625 L 16.109375 11.53125 C 15.921875 11.457031 15.78125 11.425781 15.6875 11.4375 L 2.265625 12.9375 C 2.035156 12.96875 1.832031 12.910156 1.65625 12.765625 C 1.488281 12.628906 1.390625 12.445312 1.359375 12.21875 Z M 0.484375 4.359375 "/></g></g></g><g fill="#0051b1" fill-opacity="1"><g transform="translate(135.630993, 201.097867)"><g><path d="M 38.59375 -60.984375 C 38.832031 -61.453125 39.242188 -61.6875 39.828125 -61.6875 L 50.0625 -61.6875 C 50.351562 -61.6875 50.597656 -61.582031 50.796875 -61.375 C 51.003906 -61.175781 51.109375 -60.925781 51.109375 -60.625 L 51.109375 -1.0625 C 51.109375 -0.757812 51.003906 -0.503906 50.796875 -0.296875 C 50.597656 -0.0976562 50.351562 0 50.0625 0 L 39.75 0 C 39.445312 0 39.191406 -0.0976562 38.984375 -0.296875 C 38.785156 -0.503906 38.6875 -0.757812 38.6875 -1.0625 L 38.6875 -40.1875 C 38.6875 -40.414062 38.625 -40.546875 38.5 -40.578125 C 38.382812 -40.609375 38.269531 -40.535156 38.15625 -40.359375 L 30.046875 -26.96875 C 29.816406 -26.5 29.40625 -26.265625 28.8125 -26.265625 L 26.796875 -26.265625 C 26.203125 -26.265625 25.789062 -26.5 25.5625 -26.96875 L 17.453125 -40.359375 C 17.328125 -40.535156 17.207031 -40.609375 17.09375 -40.578125 C 16.976562 -40.546875 16.921875 -40.414062 16.921875 -40.1875 L 16.921875 -1.0625 C 16.921875 -0.757812 16.816406 -0.503906 16.609375 -0.296875 C 16.398438 -0.0976562 16.148438 0 15.859375 0 L 5.546875 0 C 5.253906 0 5.003906 -0.0976562 4.796875 -0.296875 C 4.597656 -0.503906 4.5 -0.757812 4.5 -1.0625 L 4.5 -60.625 C 4.5 -60.925781 4.597656 -61.175781 4.796875 -61.375 C 5.003906 -61.582031 5.253906 -61.6875 5.546875 -61.6875 L 15.78125 -61.6875 C 16.363281 -61.6875 16.773438 -61.453125 17.015625 -60.984375 L 27.578125 -43.625 C 27.753906 -43.269531 27.929688 -43.269531 28.109375 -43.625 Z M 38.59375 -60.984375 "/></g></g></g><g fill="#0051b1" fill-opacity="1"><g transform="translate(191.240861, 201.097867)"><g><path d="M 18.859375 -0.09375 C 18.566406 -0.09375 18.316406 -0.191406 18.109375 -0.390625 C 17.898438 -0.597656 17.796875 -0.847656 17.796875 -1.140625 L 17.796875 -23.703125 L 17.71875 -24.234375 L 2.46875 -60.453125 C 2.40625 -60.566406 2.375 -60.742188 2.375 -60.984375 C 2.375 -61.453125 2.671875 -61.6875 3.265625 -61.6875 L 14.359375 -61.6875 C 15.003906 -61.6875 15.414062 -61.394531 15.59375 -60.8125 L 23.796875 -38.515625 C 23.847656 -38.335938 23.929688 -38.25 24.046875 -38.25 C 24.171875 -38.25 24.265625 -38.335938 24.328125 -38.515625 L 32.515625 -60.8125 C 32.691406 -61.394531 33.101562 -61.6875 33.75 -61.6875 L 44.859375 -61.6875 C 45.265625 -61.6875 45.523438 -61.566406 45.640625 -61.328125 C 45.765625 -61.097656 45.769531 -60.804688 45.65625 -60.453125 L 30.3125 -24.234375 L 30.234375 -23.703125 L 30.234375 -1.140625 C 30.234375 -0.847656 30.128906 -0.597656 29.921875 -0.390625 C 29.710938 -0.191406 29.460938 -0.09375 29.171875 -0.09375 Z M 18.859375 -0.09375 "/></g></g></g><g clip-path="url(#1c11130990)"><path fill="#0051b1" d="M 274.363281 247.925781 C 272.292969 247.925781 270.613281 249.605469 270.613281 251.675781 C 270.613281 253.746094 272.292969 255.425781 274.363281 255.425781 C 276.433594 255.425781 278.113281 253.746094 278.113281 251.675781 C 278.113281 249.605469 276.433594 247.925781 274.363281 247.925781 " fill-opacity="1" fill-rule="nonzero"/></g><g clip-path="url(#11195585a0)"><path fill="#0051b1" d="M 100.519531 247.925781 C 98.445312 247.925781 96.769531 249.605469 96.769531 251.675781 C 96.769531 253.746094 98.445312 255.425781 100.519531 255.425781 C 102.589844 255.425781 104.269531 253.746094 104.269531 251.675781 C 104.269531 249.605469 102.589844 247.925781 100.519531 247.925781 " fill-opacity="1" fill-rule="nonzero"/></g><path fill="#0051b1" d="M 147.800781 302.25 L 162.085938 302.25 L 162.085938 305.4375 L 147.800781 305.4375 Z M 147.800781 302.25 " fill-opacity="1" fill-rule="nonzero"/><path fill="#0051b1" d="M 147.800781 295.875 L 162.085938 295.875 L 162.085938 299.0625 L 147.800781 299.0625 Z M 147.800781 295.875 " fill-opacity="1" fill-rule="nonzero"/><path fill="#0051b1" d="M 147.800781 289.5 L 162.085938 289.5 L 162.085938 292.6875 L 147.800781 292.6875 Z M 147.800781 289.5 " fill-opacity="1" fill-rule="nonzero"/><g clip-path="url(#7936db0344)"><path fill="#0051b1" d="M 233.863281 292.320312 C 233.035156 291.535156 232.054688 291.175781 230.917969 291.234375 L 206.53125 292.59375 L 206.53125 289.5 L 203.359375 289.5 L 203.359375 292.6875 L 174.046875 292.6875 L 168.167969 283.832031 C 167.855469 283.359375 167.414062 283.121094 166.847656 283.121094 L 144.625 283.121094 C 144.3125 283.121094 144.003906 283.152344 143.695312 283.214844 C 143.390625 283.277344 143.089844 283.367188 142.804688 283.488281 C 142.515625 283.609375 142.238281 283.753906 141.980469 283.929688 C 141.71875 284.105469 141.480469 284.300781 141.257812 284.523438 C 141.039062 284.746094 140.839844 284.988281 140.667969 285.25 C 140.492188 285.507812 140.347656 285.785156 140.226562 286.074219 C 140.105469 286.363281 140.015625 286.664062 139.953125 286.972656 C 139.894531 287.28125 139.863281 287.589844 139.863281 287.902344 L 139.863281 307.03125 C 139.863281 307.347656 139.894531 307.65625 139.953125 307.964844 C 140.015625 308.273438 140.105469 308.570312 140.226562 308.863281 C 140.347656 309.152344 140.492188 309.425781 140.667969 309.6875 C 140.839844 309.949219 141.039062 310.191406 141.257812 310.414062 C 141.480469 310.632812 141.71875 310.832031 141.980469 311.007812 C 142.238281 311.179688 142.515625 311.328125 142.804688 311.449219 C 143.089844 311.570312 143.390625 311.660156 143.695312 311.722656 C 144.003906 311.78125 144.3125 311.8125 144.625 311.8125 L 166.847656 311.8125 C 167.414062 311.8125 167.855469 311.578125 168.167969 311.105469 L 174.046875 302.25 L 203.359375 302.25 L 203.359375 305.4375 L 206.53125 305.4375 L 206.53125 302.339844 L 230.917969 303.703125 C 230.988281 303.707031 231.0625 303.707031 231.136719 303.707031 C 231.394531 303.707031 231.652344 303.683594 231.910156 303.632812 C 232.164062 303.582031 232.414062 303.503906 232.65625 303.40625 C 232.894531 303.304688 233.125 303.183594 233.339844 303.035156 C 233.558594 302.890625 233.757812 302.726562 233.945312 302.542969 C 234.128906 302.355469 234.292969 302.15625 234.4375 301.9375 C 234.582031 301.71875 234.703125 301.488281 234.804688 301.25 C 234.902344 301.007812 234.980469 300.757812 235.03125 300.5 C 235.082031 300.242188 235.105469 299.984375 235.105469 299.722656 L 235.105469 295.214844 C 235.105469 294.070312 234.691406 293.105469 233.863281 292.320312 Z M 173.199219 299.0625 C 172.632812 299.0625 172.191406 299.296875 171.875 299.773438 L 166 308.625 L 144.625 308.625 C 144.414062 308.625 144.210938 308.585938 144.015625 308.503906 C 143.824219 308.421875 143.652344 308.308594 143.503906 308.160156 C 143.355469 308.007812 143.238281 307.835938 143.160156 307.640625 C 143.078125 307.445312 143.039062 307.242188 143.039062 307.03125 L 143.039062 287.902344 C 143.039062 287.691406 143.078125 287.488281 143.160156 287.292969 C 143.238281 287.097656 143.355469 286.925781 143.503906 286.777344 C 143.652344 286.628906 143.824219 286.511719 144.015625 286.433594 C 144.210938 286.351562 144.414062 286.308594 144.625 286.308594 L 166 286.308594 L 171.875 295.164062 C 172.191406 295.636719 172.632812 295.875 173.199219 295.875 L 203.359375 295.875 L 203.359375 299.0625 Z M 206.53125 295.789062 L 209.707031 295.609375 L 209.707031 299.324219 L 206.53125 299.148438 Z M 231.929688 299.722656 C 231.929688 299.953125 231.847656 300.144531 231.683594 300.300781 C 231.515625 300.460938 231.320312 300.53125 231.09375 300.519531 L 212.882812 299.503906 L 212.882812 295.433594 L 231.09375 294.417969 C 231.320312 294.40625 231.515625 294.476562 231.683594 294.632812 C 231.847656 294.792969 231.929688 294.984375 231.929688 295.214844 Z M 231.929688 299.722656 " fill-opacity="1" fill-rule="nonzero"/></g><path fill="#0051b1" d="M 159.660156 261.886719 C 160.003906 261.972656 160.324219 262.113281 160.625 262.308594 C 160.921875 262.5 161.179688 262.738281 161.398438 263.019531 C 161.617188 263.300781 161.789062 263.605469 161.90625 263.945312 C 162.023438 264.28125 162.082031 264.625 162.085938 264.984375 L 162.085938 279.933594 L 165.261719 279.933594 L 165.261719 264.984375 C 165.257812 264.273438 165.140625 263.585938 164.910156 262.914062 C 164.679688 262.242188 164.34375 261.628906 163.910156 261.070312 C 163.476562 260.511719 162.964844 260.035156 162.375 259.648438 C 161.78125 259.257812 161.144531 258.976562 160.460938 258.800781 C 159.738281 258.609375 159.035156 258.359375 158.355469 258.042969 C 157.675781 257.726562 157.027344 257.355469 156.414062 256.925781 C 155.800781 256.496094 155.226562 256.015625 154.699219 255.484375 C 154.167969 254.953125 153.691406 254.378906 153.261719 253.765625 C 152.832031 253.148438 152.460938 252.5 152.148438 251.816406 C 151.832031 251.132812 151.582031 250.429688 151.390625 249.703125 C 151.199219 248.976562 151.074219 248.238281 151.015625 247.488281 C 150.953125 246.738281 150.960938 245.992188 151.03125 245.242188 C 151.101562 244.492188 151.238281 243.757812 151.441406 243.035156 C 151.640625 242.308594 151.90625 241.609375 152.230469 240.933594 C 152.554688 240.253906 152.933594 239.609375 153.371094 239 C 153.808594 238.390625 154.296875 237.824219 154.835938 237.300781 C 155.375 236.777344 155.953125 236.308594 156.574219 235.886719 C 157.195312 235.464844 157.847656 235.105469 158.53125 234.800781 C 159.214844 234.496094 159.921875 234.253906 160.648438 234.074219 C 161.375 233.894531 162.113281 233.78125 162.859375 233.734375 C 163.605469 233.683594 164.351562 233.703125 165.09375 233.789062 C 165.839844 233.871094 166.570312 234.019531 167.285156 234.234375 C 168.003906 234.449219 168.699219 234.722656 169.367188 235.058594 C 170.035156 235.398438 170.671875 235.789062 171.269531 236.238281 C 171.871094 236.6875 172.425781 237.1875 172.9375 237.738281 C 173.449219 238.285156 173.910156 238.875 174.320312 239.503906 C 174.726562 240.132812 175.078125 240.792969 175.371094 241.488281 C 175.660156 242.179688 175.890625 242.890625 176.058594 243.625 L 179.152344 242.917969 C 178.667969 240.796875 177.789062 238.859375 176.515625 237.097656 C 175.238281 235.339844 173.671875 233.90625 171.808594 232.789062 C 171.960938 231.832031 172.199219 230.894531 172.523438 229.976562 C 172.847656 229.0625 173.25 228.183594 173.734375 227.34375 C 174.214844 226.5 174.769531 225.710938 175.398438 224.96875 C 176.027344 224.230469 176.714844 223.554688 177.464844 222.941406 C 178.214844 222.328125 179.015625 221.789062 179.863281 221.320312 C 180.710938 220.855469 181.597656 220.46875 182.515625 220.164062 C 183.433594 219.859375 184.371094 219.644531 185.332031 219.511719 C 186.289062 219.378906 187.253906 219.335938 188.21875 219.382812 C 189.183594 219.425781 190.140625 219.558594 191.082031 219.78125 C 192.023438 220 192.9375 220.304688 193.824219 220.691406 C 194.710938 221.082031 195.558594 221.546875 196.359375 222.089844 C 197.160156 222.632812 197.90625 223.246094 198.597656 223.925781 C 199.289062 224.605469 199.910156 225.34375 200.46875 226.136719 C 201.023438 226.933594 201.503906 227.773438 201.90625 228.65625 C 202.3125 229.539062 202.632812 230.449219 202.867188 231.394531 C 203.105469 232.335938 203.257812 233.289062 203.320312 234.257812 C 201.632812 235.25 200.175781 236.507812 198.949219 238.03125 L 201.417969 240.039062 C 201.730469 239.648438 202.066406 239.277344 202.425781 238.925781 C 202.785156 238.574219 203.160156 238.246094 203.558594 237.941406 C 203.953125 237.636719 204.367188 237.355469 204.796875 237.097656 C 205.226562 236.839844 205.671875 236.609375 206.128906 236.40625 C 206.585938 236.199219 207.050781 236.023438 207.53125 235.875 C 208.007812 235.726562 208.492188 235.605469 208.984375 235.515625 C 209.476562 235.425781 209.972656 235.363281 210.472656 235.328125 C 210.96875 235.296875 211.46875 235.292969 211.96875 235.320312 C 212.46875 235.347656 212.964844 235.402344 213.457031 235.488281 C 213.949219 235.574219 214.4375 235.691406 214.917969 235.832031 C 215.394531 235.976562 215.863281 236.148438 216.324219 236.347656 C 216.785156 236.546875 217.230469 236.769531 217.664062 237.023438 C 218.09375 237.273438 218.511719 237.550781 218.910156 237.851562 C 219.3125 238.152344 219.691406 238.476562 220.054688 238.824219 C 220.417969 239.171875 220.757812 239.539062 221.078125 239.925781 C 221.394531 240.3125 221.691406 240.714844 221.960938 241.136719 C 222.234375 241.558594 222.480469 241.996094 222.699219 242.449219 C 222.917969 242.898438 223.113281 243.363281 223.277344 243.835938 C 223.441406 244.308594 223.582031 244.792969 223.6875 245.28125 C 223.796875 245.773438 223.878906 246.265625 223.929688 246.765625 C 223.980469 247.265625 224 247.769531 223.992188 248.269531 C 223.984375 248.773438 223.945312 249.273438 223.878906 249.769531 C 223.8125 250.269531 223.714844 250.761719 223.589844 251.246094 C 223.464844 251.734375 223.3125 252.210938 223.128906 252.679688 C 222.949219 253.144531 222.742188 253.601562 222.507812 254.046875 C 222.269531 254.488281 222.011719 254.917969 221.726562 255.328125 C 221.441406 255.742188 221.132812 256.136719 220.800781 256.511719 C 220.46875 256.886719 220.117188 257.242188 219.742188 257.578125 C 219.367188 257.910156 218.976562 258.222656 218.566406 258.511719 C 218.15625 258.796875 217.730469 259.0625 217.289062 259.296875 C 216.851562 259.535156 216.398438 259.746094 215.929688 259.929688 C 215.464844 260.113281 214.992188 260.269531 214.507812 260.394531 C 213.824219 260.570312 213.183594 260.851562 212.59375 261.242188 C 212.003906 261.628906 211.492188 262.105469 211.054688 262.664062 C 210.621094 263.222656 210.289062 263.835938 210.058594 264.507812 C 209.828125 265.179688 209.710938 265.867188 209.707031 266.578125 L 209.707031 283.121094 L 198.597656 283.121094 L 198.597656 274.21875 L 202.894531 269.902344 L 200.648438 267.648438 L 195.886719 272.429688 C 195.574219 272.742188 195.421875 273.117188 195.421875 273.558594 L 195.421875 283.121094 L 189.070312 283.121094 L 189.070312 268.777344 L 185.898438 268.777344 L 185.898438 283.121094 L 179.546875 283.121094 L 179.546875 273.558594 C 179.546875 273.117188 179.390625 272.742188 179.082031 272.429688 L 174.320312 267.648438 L 172.074219 269.902344 L 176.371094 274.21875 L 176.371094 283.121094 L 173.199219 283.121094 L 173.199219 286.308594 L 209.707031 286.308594 L 209.707031 289.5 L 212.882812 289.5 L 212.882812 266.578125 C 212.886719 266.21875 212.945312 265.875 213.0625 265.539062 C 213.179688 265.203125 213.347656 264.894531 213.570312 264.613281 C 213.789062 264.332031 214.046875 264.09375 214.34375 263.902344 C 214.640625 263.707031 214.964844 263.566406 215.308594 263.480469 C 215.820312 263.34375 216.324219 263.183594 216.820312 263 C 217.316406 262.8125 217.800781 262.601562 218.277344 262.367188 C 218.75 262.132812 219.210938 261.875 219.660156 261.59375 C 220.109375 261.3125 220.546875 261.011719 220.964844 260.6875 C 221.382812 260.363281 221.785156 260.015625 222.171875 259.652344 C 222.554688 259.285156 222.921875 258.902344 223.269531 258.503906 C 223.613281 258.101562 223.941406 257.683594 224.246094 257.246094 C 224.550781 256.8125 224.832031 256.363281 225.09375 255.902344 C 225.355469 255.441406 225.589844 254.964844 225.804688 254.476562 C 226.015625 253.992188 226.203125 253.496094 226.367188 252.992188 C 226.53125 252.484375 226.671875 251.972656 226.785156 251.453125 C 226.894531 250.933594 226.984375 250.410156 227.042969 249.882812 C 227.105469 249.355469 227.136719 248.824219 227.144531 248.292969 C 227.152344 247.761719 227.136719 247.230469 227.089844 246.703125 C 227.042969 246.171875 226.972656 245.644531 226.875 245.125 C 226.777344 244.601562 226.65625 244.085938 226.507812 243.574219 C 226.359375 243.066406 226.183594 242.5625 225.984375 242.070312 C 225.785156 241.578125 225.5625 241.097656 225.316406 240.625 C 225.070312 240.15625 224.800781 239.699219 224.507812 239.257812 C 224.21875 238.8125 223.902344 238.386719 223.570312 237.972656 C 223.234375 237.5625 222.878906 237.167969 222.503906 236.792969 C 222.132812 236.417969 221.738281 236.058594 221.332031 235.722656 C 220.921875 235.386719 220.496094 235.070312 220.054688 234.777344 C 219.613281 234.480469 219.160156 234.210938 218.691406 233.960938 C 218.222656 233.714844 217.746094 233.488281 217.253906 233.289062 C 216.765625 233.089844 216.265625 232.914062 215.757812 232.761719 C 215.25 232.613281 214.738281 232.488281 214.214844 232.390625 C 213.695312 232.289062 213.171875 232.21875 212.644531 232.171875 C 212.117188 232.125 211.589844 232.105469 211.058594 232.113281 C 210.53125 232.121094 210.003906 232.152344 209.476562 232.214844 C 208.953125 232.273438 208.429688 232.359375 207.914062 232.472656 C 207.394531 232.585938 206.886719 232.722656 206.382812 232.886719 C 206.238281 231.773438 206.003906 230.679688 205.671875 229.609375 C 205.335938 228.535156 204.914062 227.503906 204.402344 226.507812 C 203.886719 225.507812 203.289062 224.566406 202.609375 223.675781 C 201.929688 222.78125 201.179688 221.957031 200.355469 221.199219 C 199.53125 220.441406 198.648438 219.761719 197.703125 219.160156 C 196.761719 218.558594 195.773438 218.042969 194.738281 217.613281 C 193.707031 217.1875 192.644531 216.855469 191.550781 216.613281 C 190.457031 216.375 189.355469 216.234375 188.238281 216.1875 C 187.121094 216.144531 186.007812 216.199219 184.902344 216.351562 C 183.792969 216.503906 182.707031 216.75 181.644531 217.09375 C 180.582031 217.441406 179.554688 217.875 178.566406 218.398438 C 177.578125 218.925781 176.644531 219.535156 175.765625 220.222656 C 174.882812 220.914062 174.070312 221.675781 173.320312 222.511719 C 172.574219 223.347656 171.90625 224.242188 171.3125 225.191406 C 170.722656 226.144531 170.21875 227.144531 169.804688 228.183594 C 169.386719 229.226562 169.066406 230.296875 168.839844 231.394531 C 167.160156 230.8125 165.4375 230.519531 163.664062 230.519531 C 163.550781 230.519531 163.4375 230.519531 163.324219 230.523438 C 162.375 230.542969 161.433594 230.648438 160.503906 230.839844 C 159.574219 231.03125 158.667969 231.304688 157.785156 231.65625 C 156.902344 232.011719 156.058594 232.441406 155.253906 232.945312 C 154.449219 233.453125 153.695312 234.027344 152.992188 234.667969 C 152.289062 235.308594 151.648438 236.007812 151.074219 236.765625 C 150.496094 237.523438 149.988281 238.324219 149.554688 239.175781 C 149.121094 240.023438 148.765625 240.902344 148.488281 241.816406 C 148.210938 242.726562 148.019531 243.65625 147.90625 244.605469 C 147.796875 245.550781 147.769531 246.5 147.832031 247.453125 C 147.890625 248.40625 148.03125 249.34375 148.257812 250.269531 C 148.484375 251.195312 148.792969 252.09375 149.179688 252.964844 C 149.566406 253.835938 150.03125 254.664062 150.566406 255.453125 C 151.101562 256.238281 151.703125 256.972656 152.367188 257.652344 C 153.035156 258.332031 153.757812 258.945312 154.535156 259.496094 C 155.308594 260.042969 156.128906 260.519531 156.988281 260.921875 C 157.851562 261.324219 158.742188 261.644531 159.660156 261.886719 Z M 159.660156 261.886719 " fill-opacity="1" fill-rule="nonzero"/></svg>